# xmcd CD database file
#
# Track frame offsets:
#	150
#	30192
#	64714
#	88291
#	146598
#	156385
#	181447
#	200088
#
# Disc length: 3305 seconds
#
# Revision: 0
# Processed by: cddbd v1.5.2PL0 Copyright (c) Steve Scherf et al.
# Submitted via: CDex 1.70beta2
#
DISCID=6f0ce708
DTITLE=Gilad Atzmon and The Orient House Ensemble - Refuge
DYEAR=2007
DGENRE=Jazz
TTITLE0=Autumn In Baghdad
TTITLE1=Spring in New York
TTITLE2=In The Small Hours
TTITLE3=The Burning Bush
TTITLE4=Her Smile
TTITLE5=Her Tears
TTITLE6=My Refuge
TTITLE7=Just Another Prayer For Peace
EXTD=YEAR: 2007
EXTT0=
EXTT1=
EXTT2=
EXTT3=
EXTT4=
EXTT5=
EXTT6=
EXTT7=
PLAYORDER=
